<svg xmlns="http://www.w3.org/2000/svg" viewBox="0 0 400 300">
<rect width="400" height="300" fill="#D9E4D8"/><circle cx="200" cy="150" r="120" fill="#BDD0BD"/><ellipse cx="200" cy="264" rx="96" ry="10" fill="#2B1A12" opacity=".18"/>
<g transform="translate(64 24) scale(1.133)">
<rect x="76" y="84" width="88" height="120" rx="8" fill="#C8C3B9" stroke="#2B1A12" stroke-width="3" stroke-linejoin="round"/>
<path d="M72 92V124M168 92V124" stroke="#2B1A12" stroke-width="6" stroke-linecap="round"/>
<rect x="70" y="66" width="100" height="22" rx="6" fill="#2B1A12"/><circle cx="120" cy="77" r="5.5" fill="#B4281F"/>
<rect x="98" y="114" width="44" height="68" rx="6" fill="#F6EBD6" stroke="#2B1A12" stroke-width="2.5"/>
<g transform="rotate(30 112 164)"><ellipse cx="112" cy="164" rx="5.9" ry="9" fill="#4A2A18"/><path d="M112 155.9C108.4 161.3 115.6 166.7 112 172.1" fill="none" stroke="#F6EBD6" stroke-width="1.4" stroke-linecap="round"/></g><g transform="rotate(110 128 168)"><ellipse cx="128" cy="168" rx="5.9" ry="9" fill="#4A2A18"/><path d="M128 159.9C124.4 165.3 131.6 170.7 128 176.1" fill="none" stroke="#F6EBD6" stroke-width="1.4" stroke-linecap="round"/></g><g transform="rotate(70 120 150)"><ellipse cx="120" cy="150" rx="5.9" ry="9" fill="#4A2A18"/><path d="M120 141.9C116.4 147.3 123.6 152.7 120 158.1" fill="none" stroke="#F6EBD6" stroke-width="1.4" stroke-linecap="round"/></g><g transform="rotate(160 110 140)"><ellipse cx="110" cy="140" rx="5.9" ry="9" fill="#4A2A18"/><path d="M110 131.9C106.4 137.3 113.6 142.7 110 148.1" fill="none" stroke="#F6EBD6" stroke-width="1.4" stroke-linecap="round"/></g><g transform="rotate(20 130 136)"><ellipse cx="130" cy="136" rx="5.9" ry="9" fill="#4A2A18"/><path d="M130 127.9C126.4 133.3 133.6 138.7 130 144.1" fill="none" stroke="#F6EBD6" stroke-width="1.4" stroke-linecap="round"/></g>
</g>
</svg>